<?xml version="1.0" encoding="iso-8859-1"?>
<!-- Generator: Adobe Illustrator 18.1.1, SVG Export Plug-In . SVG Version: 6.00 Build 0)  -->
<svg fill="white" height="30px" width="30px" version="1.1" id="Capa_1" xmlns="http://www.w3.org/2000/svg" xmlns:xlink="http://www.w3.org/1999/xlink" x="0px" y="0px"
	 viewBox="0 0 372.184 372.184" style="enable-background:new 0 0 372.184 372.184;" xml:space="preserve">
<g>
	<path style="fill:#010002;" d="M186.092,0c84.497,0,155.884,32.448,155.884,70.857s-71.394,70.857-155.884,70.857
		c-84.497,0-155.884-32.448-155.884-70.857S101.589,0,186.092,0z"/>
	<path style="fill:#010002;" d="M341.976,301.327c0,38.409-71.394,70.857-155.884,70.857c-84.497,0-155.884-32.448-155.884-70.857
		v-45.641c24.488,30.526,84.258,51.607,155.884,51.607s131.396-21.075,155.884-51.607V301.327z"/>
	<path style="fill:#010002;" d="M341.976,224.503c0,38.409-71.394,70.857-155.884,70.857c-84.497,0-155.884-32.448-155.884-70.857
		v-45.641c24.488,30.532,84.264,51.607,155.884,51.607s131.396-21.075,155.884-51.607V224.503z"/>
	<path style="fill:#010002;" d="M341.976,147.68c0,38.409-71.394,70.857-155.884,70.857c-84.497,0-155.884-32.448-155.884-70.857
		v-45.647c24.488,30.538,84.264,51.613,155.884,51.613s131.396-21.075,155.884-51.613V147.68z"/>
</g>
<g>
</g>
<g>
</g>
<g>
</g>
<g>
</g>
<g>
</g>
<g>
</g>
<g>
</g>
<g>
</g>
<g>
</g>
<g>
</g>
<g>
</g>
<g>
</g>
<g>
</g>
<g>
</g>
<g>
</g>
</svg>
