<?xml version="1.0" standalone="no"?>
<!DOCTYPE svg PUBLIC "-//W3C//DTD SVG 20010904//EN"
 "http://www.w3.org/TR/2001/REC-SVG-20010904/DTD/svg10.dtd">
<svg version="1.0" xmlns="http://www.w3.org/2000/svg"
 width="100px" height="100px" viewBox="0 0 512.000000 512.000000"
 preserveAspectRatio="xMidYMid meet">

<g transform="translate(0.000000,512.000000) scale(0.100000,-0.100000)"
fill="#000000" stroke="none">
<path d="M1053 5106 c-255 -49 -466 -179 -615 -380 -289 -389 -250 -927 91
-1267 263 -261 635 -353 986 -242 308 97 543 339 642 660 25 82 27 101 27 268
0 167 -2 186 -27 268 -106 343 -360 588 -705 678 -100 27 -299 34 -399 15z"/>
<path d="M3761 3330 c-57 -12 -117 -44 -160 -83 -18 -18 -148 -183 -289 -367
-140 -184 -261 -341 -268 -349 -11 -12 -75 27 -417 252 -363 240 -408 267
-445 267 -81 0 -140 -87 -109 -162 13 -32 52 -61 274 -209 l258 -173 -81 -13
c-93 -14 -196 -50 -263 -92 -25 -15 -176 -121 -335 -234 -182 -131 -301 -209
-322 -213 -23 -4 -45 0 -71 12 -35 17 -47 36 -133 205 -52 102 -105 199 -117
215 -12 17 -45 43 -73 58 -106 57 -245 25 -314 -72 l-29 -41 163 -323 c89
-178 179 -343 199 -367 101 -121 296 -160 440 -87 36 19 591 487 987 832 l60
53 82 -55 c45 -30 82 -58 82 -62 -1 -4 -127 -171 -280 -372 -154 -201 -290
-385 -303 -410 -31 -62 -31 -185 0 -251 38 -85 116 -153 203 -180 14 -4 -131
-8 -322 -8 l-348 -1 0 -550 0 -550 119 0 119 0 5 178 c5 195 15 241 73 352 19
36 54 89 79 117 56 64 172 143 256 174 l64 24 843 3 c745 2 849 1 904 -13 170
-45 320 -166 398 -322 50 -102 60 -159 60 -345 l0 -168 125 0 125 0 0 550 0
550 -1177 1 c-725 0 -1166 4 -1147 10 87 25 113 54 777 879 457 567 657 824
679 868 59 122 37 267 -57 371 -71 79 -207 123 -314 101z"/>
<path d="M491 3040 c-169 -196 -284 -433 -343 -705 -20 -96 -21 -131 -25 -792
l-4 -693 710 0 c562 0 711 3 711 13 -1 6 -27 99 -58 206 l-57 194 -65 13
c-111 23 -204 76 -295 168 l-80 81 -187 378 c-217 436 -212 417 -148 545 45
90 128 175 211 217 58 30 157 55 217 55 l43 0 -58 112 -58 111 -90 22 c-109
28 -176 54 -273 106 -41 21 -77 39 -82 39 -5 0 -36 -31 -69 -70z"/>
<path d="M136 583 c15 -66 55 -169 86 -221 75 -126 221 -252 358 -308 120 -49
179 -54 606 -54 l394 0 0 305 0 305 -725 0 -725 0 6 -27z"/>
</g>
</svg>
